<mxfile host="app.diagrams.net" agent="Mozilla/5.0 (Windows NT 10.0; Win64; x64) AppleWebKit/537.36 (KHTML, like Gecko) Chrome/130.0.0.0 Safari/537.36" version="24.8.3">
  <diagram name="Page-1" id="uTuMJ24y415ABYmsvGK3">
    <mxGraphModel dx="1434" dy="784" grid="1" gridSize="10" guides="1" tooltips="1" connect="1" arrows="1" fold="1" page="1" pageScale="1" pageWidth="850" pageHeight="1100" math="0" shadow="0">
      <root>
        <mxCell id="0" />
        <mxCell id="1" parent="0" />
        <mxCell id="q04trqsO_TdyiEDmOI59-2" value="Viesis" style="shape=umlActor;verticalLabelPosition=bottom;verticalAlign=top;html=1;outlineConnect=0;" parent="1" vertex="1">
          <mxGeometry x="320" y="440" width="30" height="60" as="geometry" />
        </mxCell>
        <mxCell id="q04trqsO_TdyiEDmOI59-3" value="Reģistrēts&amp;nbsp;&lt;div&gt;lietotājs&lt;/div&gt;" style="shape=umlActor;verticalLabelPosition=bottom;verticalAlign=top;html=1;outlineConnect=0;" parent="1" vertex="1">
          <mxGeometry x="320" y="570" width="30" height="60" as="geometry" />
        </mxCell>
        <mxCell id="q04trqsO_TdyiEDmOI59-4" value="Administrators" style="shape=umlActor;verticalLabelPosition=bottom;verticalAlign=top;html=1;outlineConnect=0;" parent="1" vertex="1">
          <mxGeometry x="770" y="560" width="30" height="60" as="geometry" />
        </mxCell>
        <mxCell id="q04trqsO_TdyiEDmOI59-5" value="Darbinieks" style="shape=umlActor;verticalLabelPosition=bottom;verticalAlign=top;html=1;outlineConnect=0;" parent="1" vertex="1">
          <mxGeometry x="770" y="440" width="30" height="60" as="geometry" />
        </mxCell>
        <mxCell id="q04trqsO_TdyiEDmOI59-8" value="" style="rounded=0;whiteSpace=wrap;html=1;fillColor=none;" parent="1" vertex="1">
          <mxGeometry x="410" width="280" height="1310" as="geometry" />
        </mxCell>
        <mxCell id="q04trqsO_TdyiEDmOI59-9" value="Autoservisa darba organizācijas sistēma" style="text;html=1;align=center;verticalAlign=middle;whiteSpace=wrap;rounded=0;" parent="1" vertex="1">
          <mxGeometry x="470" width="160" height="40" as="geometry" />
        </mxCell>
        <mxCell id="q04trqsO_TdyiEDmOI59-11" value="Piekļūt sistēmai" style="ellipse;whiteSpace=wrap;html=1;" parent="1" vertex="1">
          <mxGeometry x="490" y="50" width="120" height="50" as="geometry" />
        </mxCell>
        <mxCell id="q04trqsO_TdyiEDmOI59-12" value="" style="endArrow=none;html=1;rounded=0;entryX=0;entryY=0.5;entryDx=0;entryDy=0;" parent="1" target="q04trqsO_TdyiEDmOI59-11" edge="1">
          <mxGeometry width="50" height="50" relative="1" as="geometry">
            <mxPoint x="350" y="460" as="sourcePoint" />
            <mxPoint x="600" y="550" as="targetPoint" />
          </mxGeometry>
        </mxCell>
        <mxCell id="q04trqsO_TdyiEDmOI59-13" value="" style="endArrow=none;html=1;rounded=0;entryX=0;entryY=0.5;entryDx=0;entryDy=0;exitX=1;exitY=0.3333333333333333;exitDx=0;exitDy=0;exitPerimeter=0;" parent="1" source="q04trqsO_TdyiEDmOI59-3" target="q04trqsO_TdyiEDmOI59-11" edge="1">
          <mxGeometry width="50" height="50" relative="1" as="geometry">
            <mxPoint x="550" y="600" as="sourcePoint" />
            <mxPoint x="600" y="550" as="targetPoint" />
          </mxGeometry>
        </mxCell>
        <mxCell id="q04trqsO_TdyiEDmOI59-14" value="Piekļūt informācijai par uzņēmumu" style="ellipse;whiteSpace=wrap;html=1;" parent="1" vertex="1">
          <mxGeometry x="490" y="110" width="120" height="50" as="geometry" />
        </mxCell>
        <mxCell id="q04trqsO_TdyiEDmOI59-16" value="" style="endArrow=none;html=1;rounded=0;entryX=0;entryY=0.5;entryDx=0;entryDy=0;exitX=1;exitY=0.3333333333333333;exitDx=0;exitDy=0;exitPerimeter=0;" parent="1" target="q04trqsO_TdyiEDmOI59-14" edge="1" source="q04trqsO_TdyiEDmOI59-3">
          <mxGeometry width="50" height="50" relative="1" as="geometry">
            <mxPoint x="370" y="590" as="sourcePoint" />
            <mxPoint x="600" y="550" as="targetPoint" />
          </mxGeometry>
        </mxCell>
        <mxCell id="q04trqsO_TdyiEDmOI59-17" value="" style="endArrow=none;html=1;rounded=0;entryX=0;entryY=0.5;entryDx=0;entryDy=0;" parent="1" target="q04trqsO_TdyiEDmOI59-14" edge="1">
          <mxGeometry width="50" height="50" relative="1" as="geometry">
            <mxPoint x="350" y="460" as="sourcePoint" />
            <mxPoint x="510" y="325" as="targetPoint" />
          </mxGeometry>
        </mxCell>
        <mxCell id="q04trqsO_TdyiEDmOI59-18" value="" style="endArrow=none;html=1;rounded=0;entryX=1;entryY=0.5;entryDx=0;entryDy=0;exitX=0;exitY=0.3333333333333333;exitDx=0;exitDy=0;exitPerimeter=0;" parent="1" source="q04trqsO_TdyiEDmOI59-5" target="q04trqsO_TdyiEDmOI59-11" edge="1">
          <mxGeometry width="50" height="50" relative="1" as="geometry">
            <mxPoint x="550" y="300" as="sourcePoint" />
            <mxPoint x="600" y="250" as="targetPoint" />
          </mxGeometry>
        </mxCell>
        <mxCell id="q04trqsO_TdyiEDmOI59-19" value="" style="endArrow=none;html=1;rounded=0;entryX=1;entryY=0.5;entryDx=0;entryDy=0;" parent="1" target="q04trqsO_TdyiEDmOI59-14" edge="1">
          <mxGeometry width="50" height="50" relative="1" as="geometry">
            <mxPoint x="770" y="460" as="sourcePoint" />
            <mxPoint x="600" y="250" as="targetPoint" />
          </mxGeometry>
        </mxCell>
        <mxCell id="q04trqsO_TdyiEDmOI59-20" value="" style="endArrow=none;html=1;rounded=0;exitX=0;exitY=0.3333333333333333;exitDx=0;exitDy=0;exitPerimeter=0;entryX=1;entryY=0.4;entryDx=0;entryDy=0;entryPerimeter=0;" parent="1" source="q04trqsO_TdyiEDmOI59-4" target="q04trqsO_TdyiEDmOI59-14" edge="1">
          <mxGeometry width="50" height="50" relative="1" as="geometry">
            <mxPoint x="550" y="300" as="sourcePoint" />
            <mxPoint x="600" y="250" as="targetPoint" />
          </mxGeometry>
        </mxCell>
        <mxCell id="q04trqsO_TdyiEDmOI59-21" value="" style="endArrow=none;html=1;rounded=0;exitX=0;exitY=0.3333333333333333;exitDx=0;exitDy=0;exitPerimeter=0;entryX=1;entryY=0.5;entryDx=0;entryDy=0;" parent="1" source="q04trqsO_TdyiEDmOI59-4" edge="1" target="q04trqsO_TdyiEDmOI59-11">
          <mxGeometry width="50" height="50" relative="1" as="geometry">
            <mxPoint x="550" y="300" as="sourcePoint" />
            <mxPoint x="620" y="180" as="targetPoint" />
          </mxGeometry>
        </mxCell>
        <mxCell id="jBZMnw3EPrdcibrqjrfa-2" value="Reģistrēties sistēmā" style="ellipse;whiteSpace=wrap;html=1;" vertex="1" parent="1">
          <mxGeometry x="490" y="170" width="120" height="50" as="geometry" />
        </mxCell>
        <mxCell id="jBZMnw3EPrdcibrqjrfa-3" value="" style="endArrow=none;html=1;rounded=0;entryX=0;entryY=0.5;entryDx=0;entryDy=0;exitX=1;exitY=0.3333333333333333;exitDx=0;exitDy=0;exitPerimeter=0;" edge="1" parent="1" source="q04trqsO_TdyiEDmOI59-2" target="jBZMnw3EPrdcibrqjrfa-2">
          <mxGeometry width="50" height="50" relative="1" as="geometry">
            <mxPoint x="370" y="460" as="sourcePoint" />
            <mxPoint x="640" y="410" as="targetPoint" />
          </mxGeometry>
        </mxCell>
        <mxCell id="jBZMnw3EPrdcibrqjrfa-4" value="Profila izveide" style="ellipse;whiteSpace=wrap;html=1;" vertex="1" parent="1">
          <mxGeometry x="450" y="240" width="120" height="50" as="geometry" />
        </mxCell>
        <mxCell id="jBZMnw3EPrdcibrqjrfa-7" value="" style="endArrow=classic;html=1;rounded=0;dashed=1;entryX=0.5;entryY=0;entryDx=0;entryDy=0;exitX=0.411;exitY=0.977;exitDx=0;exitDy=0;exitPerimeter=0;" edge="1" parent="1" source="jBZMnw3EPrdcibrqjrfa-2" target="jBZMnw3EPrdcibrqjrfa-4">
          <mxGeometry relative="1" as="geometry">
            <mxPoint x="560" y="430" as="sourcePoint" />
            <mxPoint x="660" y="430" as="targetPoint" />
          </mxGeometry>
        </mxCell>
        <mxCell id="jBZMnw3EPrdcibrqjrfa-8" value="&amp;lt;&amp;lt;Include&amp;gt;&amp;gt;" style="edgeLabel;resizable=0;html=1;;align=center;verticalAlign=middle;" connectable="0" vertex="1" parent="jBZMnw3EPrdcibrqjrfa-7">
          <mxGeometry relative="1" as="geometry" />
        </mxCell>
        <mxCell id="jBZMnw3EPrdcibrqjrfa-9" value="Ieiet savā profilā" style="ellipse;whiteSpace=wrap;html=1;" vertex="1" parent="1">
          <mxGeometry x="490" y="300" width="120" height="50" as="geometry" />
        </mxCell>
        <mxCell id="jBZMnw3EPrdcibrqjrfa-10" value="" style="endArrow=none;html=1;rounded=0;exitX=1;exitY=0.3333333333333333;exitDx=0;exitDy=0;exitPerimeter=0;entryX=0;entryY=0.5;entryDx=0;entryDy=0;" edge="1" parent="1" source="q04trqsO_TdyiEDmOI59-3" target="jBZMnw3EPrdcibrqjrfa-9">
          <mxGeometry width="50" height="50" relative="1" as="geometry">
            <mxPoint x="590" y="560" as="sourcePoint" />
            <mxPoint x="640" y="510" as="targetPoint" />
          </mxGeometry>
        </mxCell>
        <mxCell id="jBZMnw3EPrdcibrqjrfa-11" value="" style="endArrow=none;html=1;rounded=0;entryX=1;entryY=0.5;entryDx=0;entryDy=0;exitX=0;exitY=0.3333333333333333;exitDx=0;exitDy=0;exitPerimeter=0;" edge="1" parent="1" source="q04trqsO_TdyiEDmOI59-5" target="jBZMnw3EPrdcibrqjrfa-9">
          <mxGeometry width="50" height="50" relative="1" as="geometry">
            <mxPoint x="590" y="560" as="sourcePoint" />
            <mxPoint x="640" y="510" as="targetPoint" />
          </mxGeometry>
        </mxCell>
        <mxCell id="jBZMnw3EPrdcibrqjrfa-12" value="" style="endArrow=none;html=1;rounded=0;exitX=1;exitY=0.5;exitDx=0;exitDy=0;" edge="1" parent="1" source="jBZMnw3EPrdcibrqjrfa-9">
          <mxGeometry width="50" height="50" relative="1" as="geometry">
            <mxPoint x="620" y="470" as="sourcePoint" />
            <mxPoint x="770" y="580" as="targetPoint" />
          </mxGeometry>
        </mxCell>
        <mxCell id="jBZMnw3EPrdcibrqjrfa-13" value="Piekļūt cenu kalkulatoru" style="ellipse;whiteSpace=wrap;html=1;" vertex="1" parent="1">
          <mxGeometry x="490" y="360" width="120" height="50" as="geometry" />
        </mxCell>
        <mxCell id="jBZMnw3EPrdcibrqjrfa-14" value="" style="endArrow=none;html=1;rounded=0;exitX=1;exitY=0.3333333333333333;exitDx=0;exitDy=0;exitPerimeter=0;entryX=0;entryY=0.5;entryDx=0;entryDy=0;" edge="1" parent="1" source="q04trqsO_TdyiEDmOI59-3" target="jBZMnw3EPrdcibrqjrfa-13">
          <mxGeometry width="50" height="50" relative="1" as="geometry">
            <mxPoint x="590" y="560" as="sourcePoint" />
            <mxPoint x="500" y="550" as="targetPoint" />
          </mxGeometry>
        </mxCell>
        <mxCell id="jBZMnw3EPrdcibrqjrfa-15" value="" style="endArrow=none;html=1;rounded=0;exitX=0;exitY=0.3333333333333333;exitDx=0;exitDy=0;exitPerimeter=0;entryX=1;entryY=0.5;entryDx=0;entryDy=0;" edge="1" parent="1" source="q04trqsO_TdyiEDmOI59-4" target="jBZMnw3EPrdcibrqjrfa-13">
          <mxGeometry width="50" height="50" relative="1" as="geometry">
            <mxPoint x="590" y="560" as="sourcePoint" />
            <mxPoint x="640" y="510" as="targetPoint" />
          </mxGeometry>
        </mxCell>
        <mxCell id="jBZMnw3EPrdcibrqjrfa-16" value="" style="endArrow=none;html=1;rounded=0;exitX=1;exitY=0.5;exitDx=0;exitDy=0;" edge="1" parent="1" source="jBZMnw3EPrdcibrqjrfa-9">
          <mxGeometry width="50" height="50" relative="1" as="geometry">
            <mxPoint x="590" y="560" as="sourcePoint" />
            <mxPoint x="770" y="460" as="targetPoint" />
          </mxGeometry>
        </mxCell>
        <mxCell id="jBZMnw3EPrdcibrqjrfa-17" value="Piekļūt projektu kalendāram" style="ellipse;whiteSpace=wrap;html=1;" vertex="1" parent="1">
          <mxGeometry x="490" y="420" width="120" height="50" as="geometry" />
        </mxCell>
        <mxCell id="jBZMnw3EPrdcibrqjrfa-18" value="" style="endArrow=classic;html=1;rounded=0;dashed=1;entryX=0.433;entryY=0.96;entryDx=0;entryDy=0;entryPerimeter=0;" edge="1" parent="1">
          <mxGeometry relative="1" as="geometry">
            <mxPoint x="500" y="500" as="sourcePoint" />
            <mxPoint x="521" y="470" as="targetPoint" />
          </mxGeometry>
        </mxCell>
        <mxCell id="jBZMnw3EPrdcibrqjrfa-19" value="&amp;lt;&amp;lt;Extend&amp;gt;&amp;gt;" style="edgeLabel;resizable=0;html=1;;align=center;verticalAlign=middle;" connectable="0" vertex="1" parent="jBZMnw3EPrdcibrqjrfa-18">
          <mxGeometry relative="1" as="geometry" />
        </mxCell>
        <mxCell id="jBZMnw3EPrdcibrqjrfa-21" value="Pieteikt jaunu projektu" style="ellipse;whiteSpace=wrap;html=1;" vertex="1" parent="1">
          <mxGeometry x="420" y="490" width="120" height="50" as="geometry" />
        </mxCell>
        <mxCell id="jBZMnw3EPrdcibrqjrfa-22" value="" style="endArrow=none;html=1;rounded=0;exitX=1;exitY=0.3333333333333333;exitDx=0;exitDy=0;exitPerimeter=0;entryX=0;entryY=0.5;entryDx=0;entryDy=0;" edge="1" parent="1" source="q04trqsO_TdyiEDmOI59-3" target="jBZMnw3EPrdcibrqjrfa-17">
          <mxGeometry width="50" height="50" relative="1" as="geometry">
            <mxPoint x="590" y="660" as="sourcePoint" />
            <mxPoint x="640" y="610" as="targetPoint" />
          </mxGeometry>
        </mxCell>
        <mxCell id="jBZMnw3EPrdcibrqjrfa-23" value="" style="endArrow=none;html=1;rounded=0;exitX=1;exitY=0.5;exitDx=0;exitDy=0;" edge="1" parent="1" source="jBZMnw3EPrdcibrqjrfa-17">
          <mxGeometry width="50" height="50" relative="1" as="geometry">
            <mxPoint x="590" y="660" as="sourcePoint" />
            <mxPoint x="770" y="460" as="targetPoint" />
          </mxGeometry>
        </mxCell>
        <mxCell id="jBZMnw3EPrdcibrqjrfa-24" value="" style="endArrow=none;html=1;rounded=0;exitX=1;exitY=0.5;exitDx=0;exitDy=0;" edge="1" parent="1" source="jBZMnw3EPrdcibrqjrfa-13">
          <mxGeometry width="50" height="50" relative="1" as="geometry">
            <mxPoint x="590" y="660" as="sourcePoint" />
            <mxPoint x="770" y="460" as="targetPoint" />
          </mxGeometry>
        </mxCell>
        <mxCell id="jBZMnw3EPrdcibrqjrfa-25" value="" style="endArrow=none;html=1;rounded=0;exitX=1;exitY=0.5;exitDx=0;exitDy=0;entryX=0;entryY=0.3333333333333333;entryDx=0;entryDy=0;entryPerimeter=0;" edge="1" parent="1" source="jBZMnw3EPrdcibrqjrfa-17" target="q04trqsO_TdyiEDmOI59-4">
          <mxGeometry width="50" height="50" relative="1" as="geometry">
            <mxPoint x="590" y="660" as="sourcePoint" />
            <mxPoint x="740" y="580" as="targetPoint" />
          </mxGeometry>
        </mxCell>
        <mxCell id="jBZMnw3EPrdcibrqjrfa-26" value="Apskatīt savus projektus" style="ellipse;whiteSpace=wrap;html=1;" vertex="1" parent="1">
          <mxGeometry x="560" y="490" width="110" height="50" as="geometry" />
        </mxCell>
        <mxCell id="jBZMnw3EPrdcibrqjrfa-27" value="" style="endArrow=classic;html=1;rounded=0;dashed=1;exitX=1;exitY=1;exitDx=0;exitDy=0;entryX=0.5;entryY=0;entryDx=0;entryDy=0;" edge="1" parent="1" source="jBZMnw3EPrdcibrqjrfa-17" target="jBZMnw3EPrdcibrqjrfa-26">
          <mxGeometry relative="1" as="geometry">
            <mxPoint x="568" y="510" as="sourcePoint" />
            <mxPoint x="580" y="475" as="targetPoint" />
          </mxGeometry>
        </mxCell>
        <mxCell id="jBZMnw3EPrdcibrqjrfa-28" value="&amp;lt;&amp;lt;Include&amp;gt;&amp;gt;" style="edgeLabel;resizable=0;html=1;;align=center;verticalAlign=middle;" connectable="0" vertex="1" parent="jBZMnw3EPrdcibrqjrfa-27">
          <mxGeometry relative="1" as="geometry" />
        </mxCell>
        <mxCell id="jBZMnw3EPrdcibrqjrfa-31" value="Piekļūt sava profila informācijai" style="ellipse;whiteSpace=wrap;html=1;" vertex="1" parent="1">
          <mxGeometry x="500" y="550" width="120" height="50" as="geometry" />
        </mxCell>
        <mxCell id="jBZMnw3EPrdcibrqjrfa-32" value="" style="endArrow=none;html=1;rounded=0;exitX=1;exitY=0.3333333333333333;exitDx=0;exitDy=0;exitPerimeter=0;entryX=0;entryY=0.5;entryDx=0;entryDy=0;" edge="1" parent="1" source="q04trqsO_TdyiEDmOI59-3" target="jBZMnw3EPrdcibrqjrfa-31">
          <mxGeometry width="50" height="50" relative="1" as="geometry">
            <mxPoint x="590" y="660" as="sourcePoint" />
            <mxPoint x="640" y="610" as="targetPoint" />
          </mxGeometry>
        </mxCell>
        <mxCell id="jBZMnw3EPrdcibrqjrfa-33" value="" style="endArrow=none;html=1;rounded=0;exitX=1;exitY=0.5;exitDx=0;exitDy=0;" edge="1" parent="1" source="jBZMnw3EPrdcibrqjrfa-31">
          <mxGeometry width="50" height="50" relative="1" as="geometry">
            <mxPoint x="590" y="660" as="sourcePoint" />
            <mxPoint x="770" y="460" as="targetPoint" />
          </mxGeometry>
        </mxCell>
        <mxCell id="jBZMnw3EPrdcibrqjrfa-34" value="" style="endArrow=none;html=1;rounded=0;exitX=1;exitY=0.5;exitDx=0;exitDy=0;" edge="1" parent="1" source="jBZMnw3EPrdcibrqjrfa-31">
          <mxGeometry width="50" height="50" relative="1" as="geometry">
            <mxPoint x="590" y="660" as="sourcePoint" />
            <mxPoint x="770" y="580" as="targetPoint" />
          </mxGeometry>
        </mxCell>
        <mxCell id="jBZMnw3EPrdcibrqjrfa-37" value="Rediģēt profila paroli" style="ellipse;whiteSpace=wrap;html=1;" vertex="1" parent="1">
          <mxGeometry x="480" y="610" width="120" height="50" as="geometry" />
        </mxCell>
        <mxCell id="jBZMnw3EPrdcibrqjrfa-38" value="Piekļūt jebkura lietotāja aktīvo projektu informācijai" style="ellipse;whiteSpace=wrap;html=1;" vertex="1" parent="1">
          <mxGeometry x="510" y="660" width="170" height="60" as="geometry" />
        </mxCell>
        <mxCell id="jBZMnw3EPrdcibrqjrfa-39" value="" style="endArrow=none;html=1;rounded=0;entryX=0;entryY=0.5;entryDx=0;entryDy=0;" edge="1" parent="1" target="jBZMnw3EPrdcibrqjrfa-37">
          <mxGeometry width="50" height="50" relative="1" as="geometry">
            <mxPoint x="350" y="590" as="sourcePoint" />
            <mxPoint x="640" y="610" as="targetPoint" />
          </mxGeometry>
        </mxCell>
        <mxCell id="jBZMnw3EPrdcibrqjrfa-40" value="" style="endArrow=none;html=1;rounded=0;exitX=1;exitY=0.5;exitDx=0;exitDy=0;entryX=0;entryY=0.3333333333333333;entryDx=0;entryDy=0;entryPerimeter=0;" edge="1" parent="1" source="jBZMnw3EPrdcibrqjrfa-37" target="q04trqsO_TdyiEDmOI59-5">
          <mxGeometry width="50" height="50" relative="1" as="geometry">
            <mxPoint x="590" y="660" as="sourcePoint" />
            <mxPoint x="740" y="460" as="targetPoint" />
          </mxGeometry>
        </mxCell>
        <mxCell id="jBZMnw3EPrdcibrqjrfa-41" value="" style="endArrow=none;html=1;rounded=0;exitX=1;exitY=0.5;exitDx=0;exitDy=0;" edge="1" parent="1" source="jBZMnw3EPrdcibrqjrfa-37">
          <mxGeometry width="50" height="50" relative="1" as="geometry">
            <mxPoint x="590" y="660" as="sourcePoint" />
            <mxPoint x="770" y="580" as="targetPoint" />
          </mxGeometry>
        </mxCell>
        <mxCell id="jBZMnw3EPrdcibrqjrfa-42" value="" style="endArrow=none;html=1;rounded=0;exitX=1;exitY=0.5;exitDx=0;exitDy=0;" edge="1" parent="1" source="jBZMnw3EPrdcibrqjrfa-38">
          <mxGeometry width="50" height="50" relative="1" as="geometry">
            <mxPoint x="580" y="610" as="sourcePoint" />
            <mxPoint x="770" y="460" as="targetPoint" />
          </mxGeometry>
        </mxCell>
        <mxCell id="jBZMnw3EPrdcibrqjrfa-43" value="" style="endArrow=none;html=1;rounded=0;exitX=1;exitY=0.5;exitDx=0;exitDy=0;" edge="1" parent="1" source="jBZMnw3EPrdcibrqjrfa-38">
          <mxGeometry width="50" height="50" relative="1" as="geometry">
            <mxPoint x="580" y="610" as="sourcePoint" />
            <mxPoint x="770" y="580" as="targetPoint" />
          </mxGeometry>
        </mxCell>
        <mxCell id="jBZMnw3EPrdcibrqjrfa-44" value="Rediģēt jebkura lietotāja projektu informāciju" style="ellipse;whiteSpace=wrap;html=1;" vertex="1" parent="1">
          <mxGeometry x="550" y="750" width="120" height="50" as="geometry" />
        </mxCell>
        <mxCell id="jBZMnw3EPrdcibrqjrfa-45" value="" style="endArrow=none;html=1;rounded=0;exitX=1;exitY=0.5;exitDx=0;exitDy=0;" edge="1" parent="1" source="jBZMnw3EPrdcibrqjrfa-44">
          <mxGeometry width="50" height="50" relative="1" as="geometry">
            <mxPoint x="580" y="690" as="sourcePoint" />
            <mxPoint x="770" y="460" as="targetPoint" />
          </mxGeometry>
        </mxCell>
        <mxCell id="jBZMnw3EPrdcibrqjrfa-46" value="" style="endArrow=none;html=1;rounded=0;exitX=1;exitY=0.5;exitDx=0;exitDy=0;" edge="1" parent="1" source="jBZMnw3EPrdcibrqjrfa-44">
          <mxGeometry width="50" height="50" relative="1" as="geometry">
            <mxPoint x="580" y="690" as="sourcePoint" />
            <mxPoint x="770" y="580" as="targetPoint" />
          </mxGeometry>
        </mxCell>
        <mxCell id="jBZMnw3EPrdcibrqjrfa-47" value="" style="endArrow=classic;html=1;rounded=0;dashed=1;entryX=0;entryY=1;entryDx=0;entryDy=0;exitX=1;exitY=0;exitDx=0;exitDy=0;" edge="1" parent="1" source="jBZMnw3EPrdcibrqjrfa-49" target="jBZMnw3EPrdcibrqjrfa-44">
          <mxGeometry relative="1" as="geometry">
            <mxPoint x="469" y="820" as="sourcePoint" />
            <mxPoint x="490" y="790" as="targetPoint" />
          </mxGeometry>
        </mxCell>
        <mxCell id="jBZMnw3EPrdcibrqjrfa-48" value="&amp;lt;&amp;lt;Extend&amp;gt;&amp;gt;" style="edgeLabel;resizable=0;html=1;;align=center;verticalAlign=middle;" connectable="0" vertex="1" parent="jBZMnw3EPrdcibrqjrfa-47">
          <mxGeometry relative="1" as="geometry" />
        </mxCell>
        <mxCell id="jBZMnw3EPrdcibrqjrfa-49" value="Pabeigšanas datuma maiņa" style="ellipse;whiteSpace=wrap;html=1;" vertex="1" parent="1">
          <mxGeometry x="420" y="800" width="90" height="40" as="geometry" />
        </mxCell>
        <mxCell id="jBZMnw3EPrdcibrqjrfa-53" value="Piekļūt saistīto lietotāju informācijai" style="ellipse;whiteSpace=wrap;html=1;" vertex="1" parent="1">
          <mxGeometry x="420" y="730" width="120" height="50" as="geometry" />
        </mxCell>
        <mxCell id="jBZMnw3EPrdcibrqjrfa-54" value="" style="endArrow=classic;html=1;rounded=0;dashed=1;exitX=0.438;exitY=-0.075;exitDx=0;exitDy=0;exitPerimeter=0;entryX=0;entryY=1;entryDx=0;entryDy=0;" edge="1" parent="1" source="jBZMnw3EPrdcibrqjrfa-53" target="jBZMnw3EPrdcibrqjrfa-38">
          <mxGeometry relative="1" as="geometry">
            <mxPoint x="469" y="750" as="sourcePoint" />
            <mxPoint x="500" y="740" as="targetPoint" />
          </mxGeometry>
        </mxCell>
        <mxCell id="jBZMnw3EPrdcibrqjrfa-55" value="&amp;lt;&amp;lt;Extend&amp;gt;&amp;gt;" style="edgeLabel;resizable=0;html=1;;align=center;verticalAlign=middle;" connectable="0" vertex="1" parent="jBZMnw3EPrdcibrqjrfa-54">
          <mxGeometry relative="1" as="geometry" />
        </mxCell>
        <mxCell id="jBZMnw3EPrdcibrqjrfa-56" value="Piekļūt visai sistēmas informācijai" style="ellipse;whiteSpace=wrap;html=1;" vertex="1" parent="1">
          <mxGeometry x="550" y="840" width="120" height="50" as="geometry" />
        </mxCell>
        <mxCell id="jBZMnw3EPrdcibrqjrfa-57" value="" style="endArrow=none;html=1;rounded=0;exitX=1;exitY=0.5;exitDx=0;exitDy=0;" edge="1" parent="1" source="jBZMnw3EPrdcibrqjrfa-56">
          <mxGeometry width="50" height="50" relative="1" as="geometry">
            <mxPoint x="580" y="860" as="sourcePoint" />
            <mxPoint x="770" y="580" as="targetPoint" />
          </mxGeometry>
        </mxCell>
        <mxCell id="jBZMnw3EPrdcibrqjrfa-65" value="" style="endArrow=classic;html=1;rounded=0;dashed=1;entryX=0.735;entryY=0.063;entryDx=0;entryDy=0;exitX=0;exitY=0.5;exitDx=0;exitDy=0;entryPerimeter=0;" edge="1" parent="1" source="jBZMnw3EPrdcibrqjrfa-56" target="jBZMnw3EPrdcibrqjrfa-67">
          <mxGeometry relative="1" as="geometry">
            <mxPoint x="670" y="900" as="sourcePoint" />
            <mxPoint x="625" y="880" as="targetPoint" />
          </mxGeometry>
        </mxCell>
        <mxCell id="jBZMnw3EPrdcibrqjrfa-66" value="&amp;lt;&amp;lt;Include&amp;gt;&amp;gt;" style="edgeLabel;resizable=0;html=1;;align=center;verticalAlign=middle;" connectable="0" vertex="1" parent="jBZMnw3EPrdcibrqjrfa-65">
          <mxGeometry relative="1" as="geometry" />
        </mxCell>
        <mxCell id="jBZMnw3EPrdcibrqjrfa-67" value="Piekļūt visu lietotāju informācijai" style="ellipse;whiteSpace=wrap;html=1;" vertex="1" parent="1">
          <mxGeometry x="410" y="870" width="120" height="50" as="geometry" />
        </mxCell>
        <mxCell id="jBZMnw3EPrdcibrqjrfa-69" value="" style="endArrow=classic;html=1;rounded=0;dashed=1;entryX=1;entryY=0;entryDx=0;entryDy=0;exitX=0.206;exitY=0.88;exitDx=0;exitDy=0;exitPerimeter=0;" edge="1" parent="1" source="jBZMnw3EPrdcibrqjrfa-56" target="jBZMnw3EPrdcibrqjrfa-71">
          <mxGeometry relative="1" as="geometry">
            <mxPoint x="680" y="910" as="sourcePoint" />
            <mxPoint x="560" y="865" as="targetPoint" />
          </mxGeometry>
        </mxCell>
        <mxCell id="jBZMnw3EPrdcibrqjrfa-70" value="&amp;lt;&amp;lt;Include&amp;gt;&amp;gt;" style="edgeLabel;resizable=0;html=1;;align=center;verticalAlign=middle;" connectable="0" vertex="1" parent="jBZMnw3EPrdcibrqjrfa-69">
          <mxGeometry relative="1" as="geometry" />
        </mxCell>
        <mxCell id="jBZMnw3EPrdcibrqjrfa-71" value="Piekļūt projektu statistikai" style="ellipse;whiteSpace=wrap;html=1;" vertex="1" parent="1">
          <mxGeometry x="430" y="940" width="120" height="50" as="geometry" />
        </mxCell>
        <mxCell id="jBZMnw3EPrdcibrqjrfa-72" value="" style="endArrow=classic;html=1;rounded=0;dashed=1;entryX=0.558;entryY=0.017;entryDx=0;entryDy=0;exitX=0.5;exitY=1;exitDx=0;exitDy=0;entryPerimeter=0;" edge="1" parent="1" source="jBZMnw3EPrdcibrqjrfa-56" target="jBZMnw3EPrdcibrqjrfa-74">
          <mxGeometry relative="1" as="geometry">
            <mxPoint x="542" y="957" as="sourcePoint" />
            <mxPoint x="589" y="895" as="targetPoint" />
          </mxGeometry>
        </mxCell>
        <mxCell id="jBZMnw3EPrdcibrqjrfa-73" value="&amp;lt;&amp;lt;Include&amp;gt;&amp;gt;" style="edgeLabel;resizable=0;html=1;;align=center;verticalAlign=middle;" connectable="0" vertex="1" parent="jBZMnw3EPrdcibrqjrfa-72">
          <mxGeometry relative="1" as="geometry" />
        </mxCell>
        <mxCell id="jBZMnw3EPrdcibrqjrfa-74" value="Piekļūt visu projektu informācijai" style="ellipse;whiteSpace=wrap;html=1;" vertex="1" parent="1">
          <mxGeometry x="555" y="950" width="110" height="50" as="geometry" />
        </mxCell>
        <mxCell id="jBZMnw3EPrdcibrqjrfa-75" value="Rediģēt informāciju" style="ellipse;whiteSpace=wrap;html=1;" vertex="1" parent="1">
          <mxGeometry x="570" y="1030" width="120" height="50" as="geometry" />
        </mxCell>
        <mxCell id="jBZMnw3EPrdcibrqjrfa-76" value="" style="endArrow=none;html=1;rounded=0;exitX=1;exitY=0.5;exitDx=0;exitDy=0;" edge="1" parent="1" source="jBZMnw3EPrdcibrqjrfa-75">
          <mxGeometry width="50" height="50" relative="1" as="geometry">
            <mxPoint x="580" y="950" as="sourcePoint" />
            <mxPoint x="770" y="580" as="targetPoint" />
          </mxGeometry>
        </mxCell>
        <mxCell id="jBZMnw3EPrdcibrqjrfa-77" value="" style="endArrow=classic;html=1;rounded=0;dashed=1;entryX=0.104;entryY=0.807;entryDx=0;entryDy=0;exitX=0.694;exitY=0.023;exitDx=0;exitDy=0;exitPerimeter=0;entryPerimeter=0;" edge="1" parent="1" source="jBZMnw3EPrdcibrqjrfa-81" target="jBZMnw3EPrdcibrqjrfa-75">
          <mxGeometry relative="1" as="geometry">
            <mxPoint x="463" y="1111" as="sourcePoint" />
            <mxPoint x="470" y="1060" as="targetPoint" />
          </mxGeometry>
        </mxCell>
        <mxCell id="jBZMnw3EPrdcibrqjrfa-78" value="&amp;lt;&amp;lt;Extend&amp;gt;&amp;gt;" style="edgeLabel;resizable=0;html=1;;align=center;verticalAlign=middle;" connectable="0" vertex="1" parent="jBZMnw3EPrdcibrqjrfa-77">
          <mxGeometry relative="1" as="geometry" />
        </mxCell>
        <mxCell id="jBZMnw3EPrdcibrqjrfa-81" value="Pievienot/dzēst administratorus" style="ellipse;whiteSpace=wrap;html=1;" vertex="1" parent="1">
          <mxGeometry x="415" y="1100" width="115" height="50" as="geometry" />
        </mxCell>
        <mxCell id="jBZMnw3EPrdcibrqjrfa-83" value="Pievienot/dzēst darbiniekus" style="ellipse;whiteSpace=wrap;html=1;" vertex="1" parent="1">
          <mxGeometry x="420" y="1010" width="120" height="50" as="geometry" />
        </mxCell>
        <mxCell id="jBZMnw3EPrdcibrqjrfa-85" value="" style="endArrow=classic;html=1;rounded=0;dashed=1;entryX=0;entryY=0.5;entryDx=0;entryDy=0;exitX=1;exitY=0.5;exitDx=0;exitDy=0;" edge="1" parent="1" source="jBZMnw3EPrdcibrqjrfa-83" target="jBZMnw3EPrdcibrqjrfa-75">
          <mxGeometry relative="1" as="geometry">
            <mxPoint x="503" y="1161" as="sourcePoint" />
            <mxPoint x="552" y="1130" as="targetPoint" />
          </mxGeometry>
        </mxCell>
        <mxCell id="jBZMnw3EPrdcibrqjrfa-86" value="&amp;lt;&amp;lt;Extend&amp;gt;&amp;gt;" style="edgeLabel;resizable=0;html=1;;align=center;verticalAlign=middle;" connectable="0" vertex="1" parent="jBZMnw3EPrdcibrqjrfa-85">
          <mxGeometry relative="1" as="geometry" />
        </mxCell>
        <mxCell id="jBZMnw3EPrdcibrqjrfa-87" value="Pievienot/dzēst Projektus" style="ellipse;whiteSpace=wrap;html=1;" vertex="1" parent="1">
          <mxGeometry x="480" y="1150" width="115" height="50" as="geometry" />
        </mxCell>
        <mxCell id="jBZMnw3EPrdcibrqjrfa-88" value="" style="endArrow=classic;html=1;rounded=0;dashed=1;entryX=0.5;entryY=1;entryDx=0;entryDy=0;exitX=0.5;exitY=0;exitDx=0;exitDy=0;" edge="1" parent="1" source="jBZMnw3EPrdcibrqjrfa-87" target="jBZMnw3EPrdcibrqjrfa-75">
          <mxGeometry relative="1" as="geometry">
            <mxPoint x="505" y="1111" as="sourcePoint" />
            <mxPoint x="592" y="1080" as="targetPoint" />
          </mxGeometry>
        </mxCell>
        <mxCell id="jBZMnw3EPrdcibrqjrfa-89" value="&amp;lt;&amp;lt;Extend&amp;gt;&amp;gt;" style="edgeLabel;resizable=0;html=1;;align=center;verticalAlign=middle;" connectable="0" vertex="1" parent="jBZMnw3EPrdcibrqjrfa-88">
          <mxGeometry relative="1" as="geometry" />
        </mxCell>
        <mxCell id="jBZMnw3EPrdcibrqjrfa-90" value="Dzēst lietotājus" style="ellipse;whiteSpace=wrap;html=1;" vertex="1" parent="1">
          <mxGeometry x="560" y="1210" width="115" height="50" as="geometry" />
        </mxCell>
        <mxCell id="jBZMnw3EPrdcibrqjrfa-91" value="" style="endArrow=classic;html=1;rounded=0;dashed=1;entryX=0.688;entryY=0.973;entryDx=0;entryDy=0;exitX=0.572;exitY=-0.043;exitDx=0;exitDy=0;entryPerimeter=0;exitPerimeter=0;" edge="1" parent="1" source="jBZMnw3EPrdcibrqjrfa-90" target="jBZMnw3EPrdcibrqjrfa-75">
          <mxGeometry relative="1" as="geometry">
            <mxPoint x="548" y="1160" as="sourcePoint" />
            <mxPoint x="640" y="1090" as="targetPoint" />
          </mxGeometry>
        </mxCell>
        <mxCell id="jBZMnw3EPrdcibrqjrfa-92" value="&amp;lt;&amp;lt;Extend&amp;gt;&amp;gt;" style="edgeLabel;resizable=0;html=1;;align=center;verticalAlign=middle;" connectable="0" vertex="1" parent="jBZMnw3EPrdcibrqjrfa-91">
          <mxGeometry relative="1" as="geometry" />
        </mxCell>
        <mxCell id="jBZMnw3EPrdcibrqjrfa-93" value="&lt;font style=&quot;font-size: 18px;&quot;&gt;Jānis Krišjānis Gailis&lt;/font&gt;&lt;div&gt;&lt;font size=&quot;3&quot;&gt;DP4-1&lt;/font&gt;&lt;/div&gt;&lt;div&gt;&lt;font size=&quot;3&quot;&gt;Autoservisa sistēma&lt;/font&gt;&lt;/div&gt;" style="text;html=1;align=center;verticalAlign=middle;whiteSpace=wrap;rounded=0;" vertex="1" parent="1">
          <mxGeometry x="220" y="10" width="170" height="70" as="geometry" />
        </mxCell>
      </root>
    </mxGraphModel>
  </diagram>
</mxfile>
